<svg xmlns="http://www.w3.org/2000/svg" viewBox="0 0 600 420"><rect width="600" height="420" rx="55" fill="#eaf8f4"/><circle cx="300" cy="202" r="142" fill="#ffd3b4" stroke="#654f4e" stroke-width="10"/><path d="M206 117c21-78 166-90 193 5-55-27-131-27-193-5z" fill="#754f3b"/><path d="M297 71c-30-50 42-66 53-24 9 34-29 52-52 35" fill="none" stroke="#754f3b" stroke-width="12" stroke-linecap="round"/><ellipse cx="245" cy="200" rx="12" ry="17" fill="#514342"/><ellipse cx="355" cy="200" rx="12" ry="17" fill="#514342"/><circle cx="206" cy="242" r="23" fill="#f4a6a2" opacity=".7"/><circle cx="394" cy="242" r="23" fill="#f4a6a2" opacity=".7"/><path d="M263 249q37 48 74 0" fill="#fff" stroke="#654f4e" stroke-width="8"/><path d="M189 305q111 74 222 0v76H189z" fill="#ffd85e" stroke="#654f4e" stroke-width="10"/></svg>
