<svg xmlns="http://www.w3.org/2000/svg" viewBox="0 0 600 420"><rect width="600" height="420" rx="55" fill="#fff3de"/><path d="M110 249c0-34 25-61 58-66l55-83c12-19 33-30 55-30h101c21 0 41 10 53 27l65 90c27 9 46 34 46 63v74H110z" fill="#75c8e3" stroke="#564f58" stroke-width="11" stroke-linejoin="round"/><path d="m244 112-45 73h207l-51-73z" fill="#eaf9ff" stroke="#564f58" stroke-width="9"/><circle cx="198" cy="323" r="49" fill="#564f58"/><circle cx="198" cy="323" r="23" fill="#fff"/><circle cx="452" cy="323" r="49" fill="#564f58"/><circle cx="452" cy="323" r="23" fill="#fff"/><rect x="121" y="232" width="59" height="32" rx="13" fill="#ffe16c"/><rect x="467" y="232" width="62" height="32" rx="13" fill="#ff8d8a"/></svg>
