<svg xmlns="http://www.w3.org/2000/svg" viewBox="0 0 600 420"><rect width="600" height="420" rx="55" fill="#fff3dc"/><path d="M78 278c-25-88 14-158 79-147 50 9 61 57 74 110l79 45-45 54-106-39c-22 37-58 27-81-23z" fill="#b87b4e" stroke="#574943" stroke-width="10"/><path d="M100 164 72 95M145 141l18-73" stroke="#574943" stroke-width="10" stroke-linecap="round"/><rect x="300" y="143" width="230" height="163" rx="27" fill="#e97868" stroke="#574943" stroke-width="11"/><path d="M327 143q87-103 176 0" fill="#ffd269" stroke="#574943" stroke-width="11"/><circle cx="350" cy="323" r="48" fill="#5b4b48"/><circle cx="350" cy="323" r="19" fill="#e8c090"/><circle cx="486" cy="323" r="48" fill="#5b4b48"/><circle cx="486" cy="323" r="19" fill="#e8c090"/><path d="M233 261h69" stroke="#574943" stroke-width="12"/></svg>
