<svg xmlns="http://www.w3.org/2000/svg" viewBox="0 0 600 420"><rect width="600" height="420" rx="55" fill="#f4f7df"/><ellipse cx="300" cy="242" rx="210" ry="132" fill="#fff" stroke="#554e50" stroke-width="11"/><path d="M111 242c18 101 107 128 189 128s171-27 189-128" fill="#f5ad3e"/><path d="M299 118c-97 0-177 44-188 111 58 36 119 28 189 10 70 18 131 26 189-10-12-67-92-111-190-111z" fill="#e4a43c"/><path d="M111 231q80 52 189 8 109 44 189-8" fill="none" stroke="#b5772f" stroke-width="7"/><circle cx="222" cy="209" r="24" fill="#ed7c5d"/><rect x="348" y="183" width="48" height="48" rx="10" fill="#f5d35a"/><path d="M183 147q60-60 117 5 58-66 118-5" fill="#fff" stroke="#554e50" stroke-width="8"/></svg>
