<svg xmlns="http://www.w3.org/2000/svg" viewBox="0 0 600 420"><rect width="600" height="420" rx="55" fill="#f4edff"/><path d="M316 108c42 0 126 27 148 93 32 97-99 179-213 153-101-23-103-128-33-177 36-25 67-69 98-69z" fill="#8e68bd" stroke="#51485a" stroke-width="11"/><path d="M285 130c-27-49 1-93 39-92 21 35 19 66-1 93" fill="#68a862" stroke="#4d6450" stroke-width="10"/><path d="M286 123c-45-19-75-11-92 16 32 25 67 23 101 3" fill="#75b66e" stroke="#4d6450" stroke-width="9"/><path d="M220 205c-28 45-19 86 17 108" fill="none" stroke="#b999dd" stroke-width="13" stroke-linecap="round"/></svg>
