<svg xmlns="http://www.w3.org/2000/svg" viewBox="0 0 600 420"><rect width="600" height="420" rx="55" fill="#fff5df"/><path d="M270 322C250 208 180 91 205 35c72 58 101 175 112 287M307 322c13-117 54-242 112-277 18 83-32 201-63 291M289 324c-4-137-2-245 38-303 43 91 31 212 13 310" fill="#5fac68" stroke="#49644a" stroke-width="10" stroke-linejoin="round"/><path d="M252 304h114l28 76H224z" fill="#f9f2d6" stroke="#5d514b" stroke-width="10"/><path d="M250 374l-30 32M278 376l-10 35M310 377v35M342 376l12 35M370 373l32 31" stroke="#b79a70" stroke-width="7" stroke-linecap="round"/></svg>
