<svg xmlns="http://www.w3.org/2000/svg" viewBox="0 0 600 420"><rect width="600" height="420" rx="55" fill="#fff0e6"/><path d="M300 357C145 266 104 190 146 115c41-73 126-50 154 13 28-63 113-86 154-13 42 75 1 151-154 242z" fill="#ef7890" stroke="#5b4c52" stroke-width="11"/><path d="M198 130c-26 17-37 43-32 72" fill="none" stroke="#ffb6c2" stroke-width="15" stroke-linecap="round"/><g fill="#ffd65f"><path d="m99 78 9 22 23 8-23 8-9 22-8-22-23-8 23-8zM492 236l8 20 20 7-20 7-8 20-7-20-21-7 21-7z"/></g></svg>
