<svg xmlns="http://www.w3.org/2000/svg" viewBox="0 0 600 420"><rect width="600" height="420" rx="55" fill="#dff5ff"/><circle cx="486" cy="81" r="42" fill="#ffd45e"/><path d="M0 238q75-30 150 0t150 0 150 0 150 0v182H0z" fill="#55b8d5"/><path d="M0 285q75-30 150 0t150 0 150 0 150 0" fill="none" stroke="#fff" stroke-width="13"/><path d="m219 211 63-105 68 105z" fill="#fff7d9" stroke="#554e58" stroke-width="8"/><path d="M282 106v108" stroke="#554e58" stroke-width="8"/><path d="M205 213h158l-28 47h-99z" fill="#e7786c" stroke="#554e58" stroke-width="8"/><path d="M433 330q38-35 77 0-39 37-77 0zm-9 0-25-18v36z" fill="#ffd15f" stroke="#4e6971" stroke-width="6"/></svg>
