<svg xmlns="http://www.w3.org/2000/svg" viewBox="0 0 600 420"><rect width="600" height="420" rx="55" fill="#70c5e8"/><circle cx="475" cy="85" r="47" fill="#ffe066"/><path d="M96 338c23-139 122-225 240-207 87 13 148 84 165 174" fill="none" stroke="#ef746e" stroke-width="67"/><path d="M96 338c23-139 122-225 240-207 87 13 148 84 165 174" fill="none" stroke="#ffd95e" stroke-width="45"/><path d="M96 338c23-139 122-225 240-207 87 13 148 84 165 174" fill="none" stroke="#77c783" stroke-width="23"/><path d="M72 339c0-49 61-71 91-34 29-47 103-15 89 34zM406 324c0-42 52-61 78-30 25-40 89-13 77 30z" fill="#fff"/></svg>
