<svg xmlns="http://www.w3.org/2000/svg" viewBox="0 0 600 420"><rect width="600" height="420" rx="55" fill="#eef7df"/><path d="M380 278c113 7 135-121 48-153-61-23-114 31-78 74 26 31 78 10 66-27" fill="#c9844c" stroke="#594a44" stroke-width="12" stroke-linecap="round"/><ellipse cx="275" cy="262" rx="116" ry="105" fill="#d99555" stroke="#594a44" stroke-width="11"/><circle cx="244" cy="151" r="66" fill="#d99555" stroke="#594a44" stroke-width="10"/><path d="m205 104 17-58 39 55M271 104l34-50 18 67" fill="#d99555" stroke="#594a44" stroke-width="9"/><circle cx="226" cy="147" r="8" fill="#453c3a"/><circle cx="278" cy="147" r="8" fill="#453c3a"/><path d="M235 180q18 20 36 0" fill="none" stroke="#594a44" stroke-width="7"/><ellipse cx="279" cy="279" rx="33" ry="49" fill="#a36b3f" stroke="#594a44" stroke-width="8"/><path d="m279 239-24 23h48z" fill="#8c5b39"/></svg>
