<svg xmlns="http://www.w3.org/2000/svg" viewBox="0 0 600 420"><rect width="600" height="420" rx="55" fill="#fff2dc"/><ellipse cx="300" cy="359" rx="170" ry="25" fill="#e8c9a6"/><path d="M303 135c-96-67-190 12-165 125 19 90 93 136 162 94 69 42 143-4 162-94 25-113-69-192-159-125z" fill="#f16f67" stroke="#654e4b" stroke-width="11"/><path d="M300 145c-2-53 21-82 49-102" stroke="#745738" stroke-width="16" stroke-linecap="round"/><path d="M329 83c55-48 102-19 109 16-55 25-88 10-109-16z" fill="#72b56e" stroke="#536a4e" stroke-width="8"/><path d="M205 190c-20 20-26 46-20 70" fill="none" stroke="#ffaaa0" stroke-width="13" stroke-linecap="round"/></svg>
