<svg xmlns="http://www.w3.org/2000/svg" viewBox="0 0 600 420"><rect width="600" height="420" rx="55" fill="#e9f6df"/><ellipse cx="300" cy="238" rx="121" ry="133" fill="#c88b5d" stroke="#594a44" stroke-width="10"/><path d="M237 120c-37-40-46-82-22-107M234 77l-36-18M235 51l24-30M363 120c37-40 46-82 22-107M366 77l36-18M365 51l-24-30" fill="none" stroke="#775539" stroke-width="11" stroke-linecap="round"/><path d="m194 145-56-53c-16 57 7 86 56 80M406 145l56-53c16 57-7 86-56 80" fill="#c88b5d" stroke="#594a44" stroke-width="9"/><circle cx="252" cy="221" r="10" fill="#423a39"/><circle cx="348" cy="221" r="10" fill="#423a39"/><ellipse cx="300" cy="285" rx="20" ry="14" fill="#684941"/><g fill="#fff4dc"><circle cx="230" cy="162" r="9"/><circle cx="370" cy="162" r="9"/><circle cx="210" cy="200" r="8"/><circle cx="390" cy="200" r="8"/></g></svg>
