<svg xmlns="http://www.w3.org/2000/svg" viewBox="0 0 600 420"><rect width="600" height="420" rx="55" fill="#eef8e7"/><ellipse cx="300" cy="230" rx="70" ry="130" fill="#5b6865" stroke="#4d4a50" stroke-width="10"/><circle cx="300" cy="115" r="62" fill="#6d7974" stroke="#4d4a50" stroke-width="10"/><circle cx="274" cy="105" r="18" fill="#e96969"/><circle cx="326" cy="105" r="18" fill="#e96969"/><path d="M250 173C140 76 87 143 127 232c35 78 103 33 143-20M350 173c110-97 163-30 123 59-35 78-103 33-143-20" fill="#dff5f2" fill-opacity=".8" stroke="#59706d" stroke-width="9"/><path d="M271 207h58M260 255h80M272 301h56" stroke="#b7c84c" stroke-width="13"/><path d="M250 320l-66 54M350 320l66 54" stroke="#4d4a50" stroke-width="9" stroke-linecap="round"/></svg>
