<svg xmlns="http://www.w3.org/2000/svg" viewBox="0 0 600 420"><rect width="600" height="420" rx="55" fill="#f1eff7"/><circle cx="300" cy="210" r="170" fill="#484852" stroke="#33323a" stroke-width="12"/><circle cx="300" cy="210" r="104" fill="#dce9ee" stroke="#33323a" stroke-width="11"/><circle cx="300" cy="210" r="39" fill="#6eb6d1" stroke="#33323a" stroke-width="9"/><path d="M300 106v65M300 249v65M196 210h65M339 210h65M226 136l46 46M328 238l46 46M374 136l-46 46M272 238l-46 46" stroke="#7d9299" stroke-width="13" stroke-linecap="round"/><path d="M209 66l30 55M391 66l-30 55M133 150l63 18M467 150l-63 18M133 270l63-18M467 270l-63-18" stroke="#71717d" stroke-width="9"/></svg>
