<svg xmlns="http://www.w3.org/2000/svg" viewBox="0 0 600 420"><rect width="600" height="420" rx="55" fill="#eaf8ff"/><circle cx="475" cy="88" r="46" fill="#ffd65f"/><path d="M0 262c100-10 119-99 216-79 65 13 67 81 145 75 91-7 108-79 239-63v225H0z" fill="#55b8d5"/><path d="M0 313c87-71 162 45 255-13 91-57 136-6 174 18 55 35 112-19 171-14" fill="none" stroke="#fff" stroke-width="27" stroke-linecap="round"/><path d="M121 244c45-16 67-59 108-43 27 10 37 42 64 53" fill="none" stroke="#fff" stroke-width="19" stroke-linecap="round"/><path d="M0 365c93-26 170 31 245 6 88-30 166 19 233 3 43-10 75-20 122-4" fill="none" stroke="#318dab" stroke-width="12"/></svg>
